<svg fill="#000000" xmlns="http://www.w3.org/2000/svg" viewBox="0 0 24 24" width="24px" height="24px"><path d="M16.938,3.063L18,2l4,4L9.075,18.925l-5.9,1.9l1.9-6L16.938,3.063 M16.938,1.063L3.875,14.125l-2.8,8.8l8.8-2.8L22.938,7.063L16.938,1.063L16.938,1.063z"/><path d="M3.575 18.325L1.675 22.325 5.675 20.425zM20.938 3.063c-1.9-1.9-4-2-4-2L3.875 14.125l1.1 1c0 0 1.2.3 2.4 1.5 1.3 1.2 1.5 2.3 1.5 2.3l1 1.2L22.938 7.063C22.938 7.063 22.838 4.962 20.938 3.063zM19.5 8.5l-4-4 1.813-1.813c2.144.408 3.412 1.815 4 4L19.5 8.5z"/></svg>